# xmcd
#
# Track frame offsets: 
#        183
#        22155
#        49420
#        66813
#        90788
#        111908
#        132428
#        144135
#        155360
#        171705
#        199475
#
# Disc length: 2955 seconds
#
# Revision: 0
# Processed by: cddbd v1.5.2PL0 Copyright (c) Steve Scherf et al.
# Submitted via: ExactAudioCopy v0.95b4
#
DISCID=9f0b890b
DTITLE=Billy Bizor with Lightnin' Hopkins - Blowing My Blues Away
DYEAR=1969
DGENRE=Blues
TTITLE0=Take It Easy Baby
TTITLE1=Screwdriver
TTITLE2=Vietnam War
TTITLE3=When I'm Dead
TTITLE4=T-Model Ford
TTITLE5=You Promised Me
TTITLE6=I'll Never Do right Again
TTITLE7=She Stays Drunk All The Time
TTITLE8=You Just Got To Miss Me
TTITLE9=I'll Miss You So
TTITLE10=Tell Me Where You Stayed Last Night
EXTD=
EXTT0=
EXTT1=
EXTT2=
EXTT3=
EXTT4=
EXTT5=
EXTT6=
EXTT7=
EXTT8=
EXTT9=
EXTT10=
PLAYORDER=
